<svg width="279" height="232" viewBox="0 0 279 232" fill="none" xmlns="http://www.w3.org/2000/svg">
<path d="M261.846 66.7471L261.805 66.728L122.818 6.04302L122.761 6.02392C114.047 2.44163 105.428 0.696332 97.1337 0.696332C81.4376 0.67723 66.9464 7.00831 55.511 18.4027C44.1044 29.745 35.7325 45.9983 31.573 65.6353H31.5692L1.50688 191.183C0.827488 194.013 0.496225 196.904 0.500032 199.771C0.495681 206.334 2.23033 212.817 5.55275 218.273C10.3427 226.123 17.9014 231.006 26.1199 231.56L26.4795 224.306L26.1237 231.56L28.937 231.749C29.4625 231.786 29.9923 231.806 30.5177 231.806C41.1524 231.806 50.858 224.528 55.2847 213.101L95.5003 109.074C99.526 99.5053 107.829 93.5487 116.803 93.5487C117.413 93.5487 118.031 93.5907 118.646 93.648L245.62 129.41L245.652 129.42C247.617 129.931 249.589 130.181 251.533 130.181C263.328 130.187 274.028 121.054 277.343 107.261L278.002 104.497C278.673 101.687 279 98.8336 279 96.023C279.005 83.3322 272.395 71.5309 261.846 66.7471ZM266.045 100.579L265.387 103.338C263.624 110.743 257.839 115.645 251.534 115.645C250.491 115.645 249.436 115.512 248.369 115.233L120.55 79.2342L120.106 79.1864C119.002 79.068 117.903 79.0113 116.803 79.0113C103.12 79.0113 90.4883 88.0867 84.3564 102.651L84.3118 102.76L43.9739 207.106C41.5691 213.318 36.2857 217.269 30.5177 217.269L29.6485 217.241L26.839 217.052C22.3721 216.744 18.2653 214.095 15.662 209.826C13.8588 206.868 12.9172 203.343 12.9172 199.771C12.9172 198.209 13.0951 196.643 13.4628 195.11L43.5534 69.4386L43.5773 69.3341C47.1826 52.1766 54.2931 38.6911 63.5499 29.4833C72.8264 20.2843 84.2542 15.2503 97.1327 15.2311C103.928 15.2311 111.139 16.66 118.617 19.7259L257.366 80.3064C263.037 82.8623 266.578 89.2265 266.582 96.0211C266.583 97.5225 266.409 99.0507 266.045 100.579Z" fill="black"/>
</svg>
