<svg width="241" height="400" viewBox="0 0 241 400" fill="none" xmlns="http://www.w3.org/2000/svg">
<path d="M95.6612 176.448C95.6612 176.448 86.6912 177.63 84.7593 169.925C83.5696 165.178 86.5638 160.224 91.3229 159.047L91.3543 159.038L91.4434 159.017L91.7257 158.951C91.9596 158.896 92.2845 158.823 92.6956 158.736C93.5179 158.561 94.687 158.328 96.1674 158.075C99.1257 157.565 103.34 156.967 108.523 156.57C118.867 155.776 133.206 155.771 149.184 158.958C154.051 159.93 157.209 164.653 156.235 169.507C155.262 174.363 150.526 177.512 145.657 176.541C131.669 173.751 119.038 173.746 109.903 174.448C105.347 174.797 101.696 175.319 99.2227 175.744C97.9869 175.957 97.0496 176.144 96.4432 176.273C96.182 176.328 95.6612 176.448 95.6612 176.448Z" fill="#212121"/>
<path d="M84.7566 71.1779C86.6884 63.4716 95.6584 64.6547 95.6584 64.6547C95.6584 64.6547 96.1791 64.7735 96.4404 64.8291C97.0461 64.9578 97.9846 65.1454 99.2193 65.3578C101.692 65.783 105.344 66.3053 109.899 66.6547C119.034 67.3554 131.666 67.3511 145.654 64.5611C150.523 63.5901 155.259 66.7388 156.233 71.5942C157.206 76.4495 154.049 81.1727 149.18 82.1437C133.202 85.3307 118.864 85.3263 108.521 84.5328C103.338 84.1351 99.1234 83.5367 96.1646 83.028C94.6843 82.7735 93.5151 82.5408 92.6928 82.3661C92.2816 82.2787 91.9568 82.2057 91.7229 82.1515L91.4406 82.085L91.3514 82.0634L91.3201 82.0558C86.561 80.8776 83.5667 75.9244 84.7566 71.1779Z" fill="#212121"/>
<path d="M120.448 239.805C153.691 239.805 183.773 226.309 205.485 204.512C209.719 200.263 213.635 195.697 217.193 190.856C231.73 171.075 240.313 146.67 240.313 120.266C240.313 54.2461 186.647 0.726562 120.448 0.726562C54.2486 0.726562 0.583252 54.2461 0.583252 120.266C0.583252 186.285 54.2486 239.805 120.448 239.805ZM37.4324 61.345C43.8765 65.7076 51.6473 69.8928 60.6679 72.8914C65.3781 74.4573 70.4693 71.9186 72.0393 67.2212C73.6094 62.5238 71.0638 57.4465 66.3536 55.8808C59.8761 53.7274 54.142 50.7846 49.2138 47.6197C67.584 29.7018 92.7228 18.6574 120.448 18.6574C148.173 18.6574 173.311 29.701 191.681 47.6177C186.752 50.7835 181.017 53.727 174.539 55.8808C169.828 57.4465 167.282 62.5238 168.852 67.2212C170.422 71.9186 175.514 74.4573 180.224 72.8914C189.246 69.8923 197.018 65.7063 203.463 61.3429C215.344 77.9618 222.334 98.2993 222.334 120.266C222.334 142.401 215.236 162.882 203.189 179.57C196.799 175.274 189.12 171.166 180.227 168.209C175.517 166.643 170.426 169.181 168.856 173.879C167.286 178.577 169.832 183.654 174.541 185.22C180.865 187.321 186.481 190.176 191.328 193.255C172.99 210.971 147.996 221.874 120.448 221.874C92.9008 221.874 67.9068 210.971 49.5684 193.256C54.4171 190.177 60.0325 187.321 66.3565 185.22C71.0667 183.654 73.6123 178.577 72.0421 173.879C70.4721 169.181 65.381 166.643 60.6708 168.209C51.7774 171.166 44.0987 175.275 37.7086 179.57C25.66 162.882 18.563 142.401 18.563 120.266C18.563 98.3005 25.5516 77.9635 37.4324 61.345Z" fill="#212121"/>
<path d="M193.486 323.484C193.486 365.01 159.084 398.692 116.625 398.692C74.1655 398.692 39.7639 365.01 39.7639 323.484C39.7639 281.957 74.1655 248.275 116.625 248.275C159.084 248.275 193.486 281.957 193.486 323.484Z" fill="black" stroke="#FFFCFC"/>
<path d="M94.684 234.708L94.258 233.274C94.802 233.01 95.346 232.748 95.89 232.488C96.434 232.224 96.978 231.96 97.522 231.696L97.456 233.346C96.992 233.574 96.53 233.802 96.07 234.03C95.61 234.254 95.148 234.48 94.684 234.708ZM96.568 240C96.568 239.572 96.568 239.158 96.568 238.758C96.568 238.354 96.568 237.904 96.568 237.408V234.984C96.568 234.572 96.568 234.162 96.568 233.754C96.568 233.342 96.568 232.928 96.568 232.512L97.522 231.696L98.416 231.75C98.416 232.218 98.416 232.692 98.416 233.172C98.416 233.648 98.416 234.132 98.416 234.624V237.408C98.416 237.904 98.416 238.354 98.416 238.758C98.416 239.158 98.416 239.572 98.416 240H96.568ZM99.472 314.664L96.064 303.192C100.416 301.08 104.768 298.984 109.12 296.904C113.472 294.792 117.824 292.68 122.176 290.568L121.648 303.768C117.936 305.592 114.24 307.416 110.56 309.24C106.88 311.032 103.184 312.84 99.472 314.664ZM114.544 357C114.544 353.576 114.544 350.264 114.544 347.064C114.544 343.832 114.544 340.232 114.544 336.264V316.872C114.544 313.576 114.544 310.296 114.544 307.032C114.544 303.736 114.544 300.424 114.544 297.096L122.176 290.568L129.328 291C129.328 294.744 129.328 298.536 129.328 302.376C129.328 306.184 129.328 310.056 129.328 313.992V336.264C129.328 340.232 129.328 343.832 129.328 347.064C129.328 350.264 129.328 353.576 129.328 357H114.544Z" fill="#FFFCFC"/>
</svg>
